<?xml version="1.0" standalone="no"?>
<!DOCTYPE svg PUBLIC "-//W3C//DTD SVG 20010904//EN"
 "http://www.w3.org/TR/2001/REC-SVG-20010904/DTD/svg10.dtd">
<svg version="1.0" xmlns="http://www.w3.org/2000/svg"
 width="494.000000pt" height="494.000000pt" viewBox="0 0 494.000000 494.000000"
 preserveAspectRatio="xMidYMid meet">
<metadata>
Created by potrace 1.14, written by Peter Selinger 2001-2017
</metadata>
<g transform="translate(0.000000,494.000000) scale(0.100000,-0.100000)"
fill="#000000" stroke="none">
<path d="M2485 4709 c-353 -40 -713 -268 -920 -583 -44 -66 -85 -135 -85 -141
0 -2 46 19 101 46 193 95 340 144 539 180 131 23 382 32 500 18 227 -27 462
-96 657 -193 62 -31 123 -58 135 -60 13 -3 117 -7 231 -10 115 -4 220 -9 233
-12 l25 -6 -32 58 c-102 188 -277 389 -424 486 -139 91 -354 183 -475 203 -25
4 -54 9 -65 11 -41 9 -353 11 -420 3z"/>
<path d="M1040 4199 c-146 -19 -286 -77 -437 -181 -189 -130 -340 -375 -398
-645 -19 -88 -14 -311 10 -408 35 -146 98 -271 203 -398 49 -60 130 -137 144
-137 3 0 8 48 11 108 4 59 9 121 12 137 49 271 110 440 239 659 73 123 147
216 303 376 70 73 133 139 139 148 17 25 144 299 144 311 0 6 -10 13 -22 16
-13 3 -36 8 -53 12 -47 10 -223 12 -295 2z"/>
<path d="M2298 4095 c-2 -1 -34 -5 -73 -8 -132 -10 -313 -56 -460 -118 -218
-90 -410 -223 -579 -400 -58 -62 -106 -116 -106 -120 0 -5 17 -7 38 -3 59 9
657 12 762 4 188 -16 463 -74 650 -138 94 -32 258 -100 277 -115 7 -5 46 -26
86 -47 321 -164 657 -500 874 -875 54 -93 132 -249 181 -360 55 -127 64 -145
72 -145 4 0 21 46 38 102 64 213 64 210 63 518 l0 285 -35 127 c-38 137 -103
306 -156 403 -35 63 -118 197 -129 205 -3 3 -24 28 -46 55 -58 74 -208 218
-294 283 -234 176 -491 285 -779 332 -62 10 -376 22 -384 15z"/>
<path d="M3716 3703 c175 -173 269 -301 373 -510 68 -136 101 -225 135 -361
45 -182 51 -236 51 -489 0 -134 3 -243 8 -243 29 0 202 162 274 255 77 101
137 241 163 380 13 73 5 289 -14 360 -42 155 -107 270 -215 382 -102 106 -168
154 -281 203 -165 73 -295 110 -442 124 -32 3 -84 9 -115 12 l-57 6 120 -119z"/>
<path d="M1309 3326 c-2 -2 -66 -6 -141 -10 -194 -9 -194 -9 -236 -74 -87
-137 -167 -352 -208 -561 -35 -176 -36 -416 -2 -597 l11 -62 56 -12 c124 -28
382 -33 485 -10 292 66 549 223 838 513 192 193 537 602 521 618 -14 14 -226
87 -330 113 -90 23 -267 55 -388 71 -51 7 -600 17 -606 11z"/>
<path d="M2769 3047 c-8 -7 -91 -100 -184 -207 -93 -107 -171 -197 -175 -200
-3 -3 -18 -19 -33 -36 l-28 -31 62 -139 c194 -437 254 -815 189 -1194 -26
-153 -65 -270 -146 -439 -35 -74 -64 -136 -64 -138 0 -9 234 8 335 24 379 59
738 270 1027 606 78 91 155 209 168 258 15 55 -9 131 -104 331 -25 54 -46 100
-46 103 0 13 -159 289 -216 375 -167 250 -351 436 -589 593 -130 85 -177 108
-196 94z"/>
<path d="M2129 2340 c-329 -291 -573 -424 -889 -485 -66 -13 -304 -13 -383 0
-43 6 -79 9 -82 6 -6 -11 68 -192 114 -276 178 -330 424 -571 751 -735 177
-89 479 -185 560 -178 34 3 36 6 107 147 135 267 174 431 174 726 0 240 -23
374 -101 600 -29 85 -112 269 -124 277 -19 13 -23 10 -127 -82z"/>
<path d="M501 2113 c-110 -147 -203 -369 -218 -518 -11 -112 -8 -279 7 -350
49 -243 163 -453 343 -636 367 -371 877 -477 1297 -269 126 62 280 161 280
179 0 4 -33 13 -72 20 -352 61 -656 200 -923 422 -79 66 -136 124 -240 244
-14 17 -58 77 -96 134 -156 231 -259 492 -301 759 -7 45 -16 82 -19 82 -4 0
-30 -30 -58 -67z"/>
<path d="M4155 1704 c-30 -82 -114 -244 -170 -329 -179 -275 -446 -515 -730
-658 -112 -56 -308 -127 -445 -162 -57 -15 -110 -30 -118 -34 -17 -10 71 -92
173 -162 38 -27 75 -53 81 -58 18 -15 155 -61 229 -77 94 -21 270 -20 370 1
202 42 381 150 560 336 80 84 97 109 153 221 34 70 69 154 77 187 22 83 26
326 8 416 -13 65 -118 300 -155 349 -13 17 -16 15 -33 -30z"/>
</g>
</svg>
