<svg xmlns="http://www.w3.org/2000/svg" class="iconLeft" viewBox="0 0 300 300"><rect width="300" height="300" x="0" y="0" fill="#E1EAE7" class="logo-background-square"/><g id="af3cd3b9-f899-417e-a83b-c6f570cc03e8" fill="#152925"><path d="M5.00 14.14Q3.77 14.14 2.73 13.48Q1.69 12.81 1.10 11.68Q0.50 10.54 0.50 9.21L0.50 9.21Q0.50 7.87 1.10 6.73Q1.69 5.59 2.71 4.92Q3.72 4.26 4.93 4.26L4.93 4.26Q5.94 4.26 6.83 4.75L6.83 4.75Q6.94 4.80 7.06 4.80L7.06 4.80Q7.32 4.80 7.60 4.61L7.60 4.61Q7.69 4.52 7.75 4.50Q7.81 4.48 7.91 4.48L7.91 4.48Q8.08 4.48 8.08 4.66L8.08 4.66L8.13 6.73Q8.13 6.93 7.98 6.93L7.98 6.93Q7.92 6.93 7.88 6.88Q7.83 6.83 7.77 6.73L7.77 6.73Q7.22 5.66 6.61 5.13Q5.99 4.61 5.03 4.61L5.03 4.61Q3.71 4.61 2.93 5.71Q2.16 6.80 2.16 9.18L2.16 9.18Q2.16 11.58 2.93 12.70Q3.70 13.82 5.00 13.82L5.00 13.82Q6.37 13.82 7.13 13.03Q7.88 12.24 8.20 11.58L8.20 11.58Q8.29 11.42 8.41 11.49L8.41 11.49Q8.51 11.56 8.53 11.61Q8.55 11.66 8.53 11.75L8.53 11.75Q8.53 11.86 8.13 12.47Q7.74 13.08 6.96 13.61Q6.17 14.14 5.00 14.14L5.00 14.14ZM9.80 14.01Q9.74 14.01 9.72 13.97Q9.70 13.93 9.70 13.85L9.70 13.85Q9.70 13.78 9.73 13.76Q9.76 13.73 9.84 13.73L9.84 13.73L10.33 13.73Q10.46 13.73 10.53 13.64Q10.60 13.54 10.60 13.41L10.60 13.41L10.60 9.00Q10.60 8.85 10.52 8.77Q10.44 8.69 10.33 8.69L10.33 8.69L9.70 8.69Q9.53 8.69 9.53 8.54L9.53 8.54Q9.53 8.36 9.72 8.36L9.72 8.36L11.41 8.36Q11.63 8.36 11.63 8.58L11.63 8.58L11.63 9.72Q11.63 9.63 11.80 9.26Q11.97 8.89 12.33 8.56Q12.70 8.23 13.29 8.23L13.29 8.23Q13.80 8.23 14.04 8.48Q14.28 8.74 14.28 9.09L14.28 9.09Q14.28 9.38 14.11 9.60Q13.94 9.81 13.68 9.81L13.68 9.81Q13.43 9.81 13.27 9.65Q13.10 9.49 13.10 9.24L13.10 9.24Q13.10 8.99 13.24 8.83L13.24 8.83Q13.31 8.76 13.31 8.71L13.31 8.71Q13.31 8.64 13.23 8.59Q13.15 8.54 13.01 8.54L13.01 8.54Q12.70 8.54 12.38 8.81Q12.07 9.09 11.85 9.63Q11.63 10.16 11.63 10.91L11.63 10.91L11.63 13.51Q11.63 13.64 11.66 13.67Q11.69 13.71 11.79 13.71L11.79 13.71L12.50 13.71Q12.57 13.71 12.63 13.74Q12.68 13.78 12.68 13.85L12.68 13.85Q12.68 14.01 12.50 14.01L12.50 14.01L9.80 14.01ZM17.28 14.14Q16.49 14.14 16.13 13.62Q15.78 13.10 15.78 12.52L15.78 12.52L15.78 8.88Q15.78 8.65 15.58 8.65L15.58 8.65L15.11 8.65Q14.97 8.65 14.97 8.51L14.97 8.51Q14.97 8.37 15.13 8.37L15.13 8.37L16.63 8.37Q16.73 8.37 16.77 8.41Q16.80 8.44 16.80 8.54L16.80 8.54L16.80 12.49Q16.80 12.95 17.07 13.24Q17.33 13.52 17.72 13.52L17.72 13.52Q18.28 13.52 18.70 13.08Q19.12 12.64 19.12 11.52L19.12 11.52L19.12 8.86Q19.12 8.74 19.08 8.69Q19.04 8.65 18.94 8.65L18.94 8.65L18.48 8.65Q18.34 8.65 18.34 8.51L18.34 8.51Q18.34 8.36 18.48 8.36L18.48 8.36L19.94 8.36Q20.06 8.36 20.11 8.40Q20.16 8.44 20.16 8.54L20.16 8.54L20.16 13.37Q20.16 13.54 20.22 13.62Q20.29 13.71 20.38 13.71L20.38 13.71L20.92 13.71Q21.10 13.71 21.10 13.83L21.10 13.83Q21.10 13.90 21.04 13.96Q20.97 14.01 20.89 14.01L20.89 14.01L19.33 14.01Q19.22 14.01 19.17 13.97Q19.12 13.92 19.12 13.79L19.12 13.79L19.12 13.01Q19.12 12.95 19.09 12.95Q19.05 12.95 19.03 13.01L19.03 13.01Q18.79 13.41 18.40 13.78Q18.00 14.14 17.28 14.14L17.28 14.14ZM24.53 14.20Q24.02 14.20 23.46 13.92Q22.89 13.65 22.48 13.01Q22.06 12.38 22.06 11.35L22.06 11.35Q22.06 10.40 22.43 9.69Q22.81 8.97 23.36 8.60Q23.91 8.22 24.42 8.22L24.42 8.22Q24.93 8.22 25.35 8.40Q25.76 8.58 26.03 8.85L26.03 8.85Q26.07 8.89 26.11 8.89L26.11 8.89Q26.22 8.89 26.22 8.76L26.22 8.76L26.22 5.21Q26.22 5.07 26.21 5.02Q26.19 4.97 26.11 4.84L26.11 4.84Q26.01 4.70 25.52 4.70L25.52 4.70L25.31 4.70Q25.23 4.70 25.18 4.66Q25.13 4.62 25.13 4.56L25.13 4.56Q25.13 4.41 25.30 4.41L25.30 4.41L26.94 4.41Q27.10 4.41 27.17 4.46Q27.24 4.51 27.24 4.63L27.24 4.63L27.24 13.24Q27.24 13.61 27.37 13.72Q27.50 13.83 27.80 13.83L27.80 13.83Q27.93 13.83 27.96 13.85Q27.99 13.86 27.99 13.93L27.99 13.93Q27.99 14.00 27.96 14.04Q27.93 14.07 27.83 14.07L27.83 14.07L26.43 14.11Q26.33 14.11 26.28 14.08Q26.22 14.06 26.22 13.96L26.22 13.96L26.22 13.37Q26.22 13.31 26.17 13.29Q26.11 13.27 26.08 13.33L26.08 13.33Q25.84 13.69 25.42 13.94Q24.99 14.20 24.53 14.20L24.53 14.20ZM24.56 13.83Q25.54 13.83 25.86 13.20Q26.19 12.56 26.22 11.97L26.22 11.97L26.22 9.76L26.21 9.73Q26.08 9.25 25.73 8.88Q25.38 8.51 24.75 8.51L24.75 8.51Q23.87 8.51 23.55 9.36Q23.23 10.21 23.23 11.30L23.23 11.30Q23.23 12.45 23.48 13.14Q23.73 13.83 24.56 13.83L24.56 13.83ZM30.41 6.41Q30.14 6.41 29.95 6.22Q29.76 6.02 29.76 5.75L29.76 5.75Q29.76 5.49 29.95 5.29Q30.14 5.08 30.41 5.08L30.41 5.08Q30.67 5.08 30.88 5.29Q31.09 5.50 31.09 5.75L31.09 5.75Q31.09 6.02 30.89 6.22Q30.69 6.41 30.41 6.41L30.41 6.41ZM29.23 14.01Q29.18 14.01 29.16 13.97Q29.13 13.93 29.13 13.85L29.13 13.85Q29.13 13.78 29.16 13.76Q29.19 13.73 29.27 13.73L29.27 13.73L29.67 13.73Q29.79 13.73 29.86 13.64Q29.92 13.54 29.92 13.41L29.92 13.41L29.92 9.00Q29.92 8.69 29.67 8.69L29.67 8.69L29.13 8.69Q28.97 8.69 28.97 8.54L28.97 8.54Q28.97 8.36 29.15 8.36L29.15 8.36L30.73 8.36Q30.94 8.36 30.94 8.58L30.94 8.58L30.94 13.51Q30.94 13.64 30.98 13.67Q31.02 13.71 31.12 13.71L31.12 13.71L31.58 13.71Q31.72 13.71 31.72 13.85L31.72 13.85Q31.72 14.01 31.58 14.01L31.58 14.01L29.23 14.01ZM34.55 14.14Q34.12 14.14 33.71 13.93Q33.29 13.72 33.29 13.10L33.29 13.10L33.29 8.72L32.52 8.72Q32.47 8.72 32.43 8.68Q32.40 8.64 32.40 8.58L32.40 8.58Q32.40 8.47 32.51 8.47L32.51 8.47Q33.08 8.33 33.46 7.85Q33.84 7.36 33.84 6.38L33.84 6.38Q33.84 6.31 33.89 6.26Q33.94 6.20 34.01 6.20L34.01 6.20L34.13 6.20Q34.20 6.20 34.24 6.26Q34.29 6.31 34.29 6.38L34.29 6.38L34.29 8.36L35.90 8.36Q35.99 8.36 35.99 8.50L35.99 8.50L35.99 8.58Q35.99 8.72 35.90 8.72L35.90 8.72L34.29 8.72L34.29 12.74Q34.29 13.26 34.50 13.43Q34.72 13.59 35.04 13.59L35.04 13.59Q35.56 13.59 35.98 12.94L35.98 12.94Q36.05 12.81 36.09 12.81L36.09 12.81Q36.27 12.81 36.27 12.96L36.27 12.96Q36.27 13.03 36.23 13.10L36.23 13.10Q35.90 13.73 35.46 13.94Q35.03 14.14 34.55 14.14L34.55 14.14ZM39.80 14.14Q39.10 14.14 38.45 13.82Q37.80 13.50 37.38 12.85Q36.96 12.19 36.96 11.27L36.96 11.27Q36.96 10.36 37.37 9.67Q37.77 8.99 38.40 8.62Q39.02 8.25 39.66 8.25L39.66 8.25Q40.47 8.25 41.01 8.65Q41.54 9.04 41.79 9.62Q42.04 10.19 42.04 10.68L42.04 10.68Q42.04 11.02 41.78 11.02L41.78 11.02L38.85 11.02Q38.46 11.02 38.29 11.07Q38.12 11.12 38.12 11.31L38.12 11.31Q38.12 12.42 38.53 13.13Q38.93 13.83 40.03 13.83L40.03 13.83L40.07 13.83Q40.53 13.82 40.96 13.57Q41.38 13.33 41.83 12.67L41.83 12.67Q41.87 12.61 41.96 12.61L41.96 12.61Q42.03 12.61 42.07 12.66Q42.11 12.70 42.07 12.78L42.07 12.78Q42.01 12.94 41.75 13.26Q41.48 13.58 40.98 13.86Q40.49 14.14 39.80 14.14L39.80 14.14ZM38.14 10.67L40.64 10.67Q40.85 10.67 40.89 10.63Q40.92 10.60 40.92 10.42L40.92 10.42Q40.92 9.81 40.71 9.16Q40.49 8.50 39.75 8.50L39.75 8.50Q39.16 8.50 38.70 9.04Q38.23 9.59 38.14 10.67L38.14 10.67ZM45.75 14.14Q45.08 14.14 44.47 13.81Q43.86 13.48 43.48 12.85Q43.09 12.21 43.09 11.34L43.09 11.34Q43.09 10.42 43.52 9.70Q43.95 8.99 44.61 8.60Q45.28 8.22 45.96 8.22L45.96 8.22Q46.63 8.22 47.17 8.58Q47.70 8.95 47.70 9.51L47.70 9.51Q47.70 9.87 47.49 10.02Q47.28 10.18 47.01 10.18L47.01 10.18Q46.75 10.18 46.56 10.00Q46.38 9.83 46.38 9.59L46.38 9.59Q46.38 9.37 46.57 9.18Q46.76 9.00 46.98 9.00L46.98 9.00Q46.89 8.74 46.65 8.57Q46.41 8.40 46.02 8.40L46.02 8.40Q45.28 8.40 44.77 9.03Q44.25 9.66 44.25 11.26L44.25 11.26Q44.25 12.43 44.63 13.13Q45.00 13.83 45.93 13.83L45.93 13.83Q46.55 13.83 46.93 13.53Q47.31 13.23 47.70 12.67L47.70 12.67Q47.74 12.60 47.80 12.60L47.80 12.60Q47.87 12.60 47.91 12.65Q47.95 12.70 47.91 12.78L47.91 12.78Q47.73 13.17 47.19 13.66Q46.66 14.14 45.75 14.14L45.75 14.14ZM48.97 14.01Q48.92 14.01 48.89 13.97Q48.87 13.93 48.87 13.85L48.87 13.85Q48.87 13.78 48.90 13.76Q48.93 13.73 49.01 13.73L49.01 13.73L49.41 13.73Q49.53 13.73 49.59 13.64Q49.66 13.54 49.66 13.41L49.66 13.41L49.66 5.07Q49.66 4.90 49.59 4.81Q49.52 4.72 49.41 4.72L49.41 4.72L48.87 4.72Q48.71 4.72 48.71 4.58L48.71 4.58Q48.71 4.51 48.75 4.46Q48.80 4.41 48.89 4.41L48.89 4.41L50.47 4.41Q50.68 4.41 50.68 4.62L50.68 4.62L50.68 9.37Q50.68 9.46 50.74 9.49Q50.79 9.52 50.83 9.45L50.83 9.45Q50.85 9.42 51.18 8.88Q51.51 8.33 52.67 8.33L52.67 8.33Q53.54 8.33 53.94 8.86Q54.33 9.38 54.33 10.01L54.33 10.01L54.33 13.48Q54.33 13.61 54.35 13.66Q54.38 13.71 54.45 13.71L54.45 13.71L54.94 13.71Q55.03 13.71 55.07 13.73Q55.10 13.76 55.10 13.85L55.10 13.85Q55.10 14.00 54.96 14.00L54.96 14.00L52.67 14.00Q52.60 14.00 52.57 13.97Q52.54 13.93 52.54 13.85L52.54 13.85Q52.54 13.71 52.67 13.71L52.67 13.71L53.12 13.71Q53.26 13.71 53.30 13.66Q53.35 13.62 53.35 13.52L53.35 13.52L53.35 10.77Q53.35 10.21 53.29 9.82Q53.23 9.44 52.97 9.16Q52.71 8.88 52.16 8.88L52.16 8.88Q50.68 8.88 50.68 11.13L50.68 11.13L50.68 13.51Q50.68 13.64 50.72 13.67Q50.76 13.71 50.86 13.71L50.86 13.71L51.32 13.71Q51.46 13.71 51.46 13.85L51.46 13.85Q51.46 14.01 51.32 14.01L51.32 14.01L48.97 14.01Z" transform="matrix(2.9741822652500676,0,0,2.9741822652500676,96.12256172296324,122.54829763501385)"/></g><defs><linearGradient id="1305e8b0-bf13-483b-a608-345cd887337c" x1="0%" x2="100%" y1="0%" y2="0%" gradientTransform="rotate(25)"><stop offset="0%" stop-color="#041804" stop-opacity="1"/><stop offset="100%" stop-opacity="1"/></linearGradient></defs><g id="1e77b41e-d781-4017-9260-c8b9180290c6" fill="url(#1305e8b0-bf13-483b-a608-345cd887337c)" stroke="none" transform="matrix(0.15322104901845124,0,0,0.15322104901845124,36.76896813753819,124.45704422439923)"><path d="M227 71c10 0 22 0 32 1-30-66-124-67-156-1 38-23 86-23 124 0zm-68 89c12 23 18 45 18 66 0 20-5 39-16 56 42 2 81-21 101-58-14-41-36-76-75-96-10 11-19 22-28 32zm-7 122c11-18 17-36 17-56 0-19-5-39-16-59-26 26-56 46-95 37 13 42 50 73 94 78zm114-68c17-41 8-89-24-120-47-47-125-42-165 11 90-10 157 20 189 109zM56 195c55 16 93-33 123-71-30-13-66-16-108-11-16 25-21 54-15 82zm123 95c52 59 144-16 97-79-15 43-53 73-97 79zm59-210c34 27 50 69 43 112 52-30 40-112-43-112zM101 57C35 40-9 127 46 170c0-36 17-69 45-91 3-8 6-15 10-22zm52 233c-56-5-102-50-107-107-62 70 37 169 107 107z"/></g></svg>